<svg height="48" width="48" xmlns="http://www.w3.org/2000/svg" xmlns:xlink="http://www.w3.org/1999/xlink"><linearGradient id="a"><stop offset="0" stop-color="#f15400"/><stop offset="1" stop-color="#fa8c00"/></linearGradient><linearGradient id="b" gradientTransform="matrix(.39742 -.00029 .0003 .37954 399 444.886)" gradientUnits="userSpaceOnUse" x1="5.234" x2="3.419" xlink:href="#c" y1="206.23" y2="147.642"/><linearGradient id="c"><stop offset="0" stop-color="#d3d3d3"/><stop offset="1" stop-color="#fcf9f9"/></linearGradient><linearGradient id="d" gradientTransform="matrix(.39742 -.00029 .0003 .37954 399 444.904)" gradientUnits="userSpaceOnUse" x1="-.485" x2="-3.976" xlink:href="#a" y1="266.767" y2="208.511"/><linearGradient id="e" gradientTransform="matrix(.39742 -.00029 .0003 .37954 399.109 444.904)" gradientUnits="userSpaceOnUse" x1="27.986" x2="27.497" xlink:href="#c" y1="263.933" y2="206.292"/><linearGradient id="f" gradientTransform="matrix(.39742 -.00029 .0003 .37954 399.064 444.784)" gradientUnits="userSpaceOnUse" x1="28.345" x2="27.538" xlink:href="#a" y1="236.009" y2="155.371"/><g fill-opacity=".353"><g fill-rule="evenodd"><path d="M5.02 2.503H24V24.5H2V5.34c0-3.046 2.86-2.837 3.02-2.837zM5.02 46.497H24V24.5H2v19.16c0 3.046 2.86 2.837 3.02 2.837zM42.98 2.503H24V24.5h22V5.34c0-3.046-2.86-2.837-3.02-2.837zM42.98 46.497H24V24.5h22v19.16c0 3.046-2.86 2.837-3.02 2.837z"/></g><path d="M16.708 19.462H9.424v-1.537q3.275-3.291 4.194-4.294.818-.918 1.102-1.386.284-.485.284-1.186 0-.719-.568-1.27t-1.52-.551q-.869 0-1.403.518-.535.5-.685 1.085l-1.404-.568q.284-.902 1.187-1.704.902-.801 2.338-.801 1.588 0 2.607.968 1.019.97 1.019 2.323 0 1.67-1.821 3.575l-3.342 3.358h5.296zM38 17.78q-1.24 1.682-3.25 1.682-2.008 0-3.25-1.682-1.241-1.683-1.241-4.165 0-2.5 1.241-4.165 1.242-1.682 3.25-1.682 2.01 0 3.25 1.682 1.242 1.666 1.242 4.165 0 2.482-1.241 4.165zm-3.25.245q1.34 0 2.14-1.258.817-1.258.817-3.152 0-1.911-.817-3.153-.8-1.257-2.14-1.257-1.355 0-2.155 1.257-.8 1.242-.8 3.153 0 1.894.8 3.152.8 1.258 2.156 1.258zM15.677 41.33h-1.573V38.87H8.547v-1.197l5.42-8.036h1.71v7.762h1.504v1.47h-1.504zm-1.573-3.932v-5.454h-.069l-3.71 5.454h3.779zM37.425 40.367q-1.094.964-2.695.964-1.6 0-2.694-.964-1.095-.964-1.095-2.385 0-.93.507-1.633.506-.719 1.323-1.127v-.065q-.637-.409-1.046-1.03-.408-.636-.408-1.322 0-1.356.964-2.254.963-.915 2.45-.915 1.486 0 2.45.915.963.898.963 2.254 0 .686-.408 1.323-.409.62-1.046 1.029v.065q.817.408 1.323 1.127.507.702.507 1.633 0 1.421-1.095 2.385zm-4.05-6.32q.539.473 1.355.473.817 0 1.34-.474.539-.49.539-1.274t-.54-1.241q-.522-.458-1.339-.458-.816 0-1.355.458-.523.457-.523 1.241t.523 1.274zm-.245 5.291q.653.555 1.6.555.948 0 1.601-.555t.653-1.437q0-.866-.653-1.421-.653-.556-1.6-.556-.948 0-1.601.556-.653.555-.653 1.42 0 .883.653 1.438z"/></g><g fill-rule="evenodd"><path d="M389.59 501.801h18.981v21.997h-22v-19.16c0-3.046 2.86-2.837 3.02-2.837z" fill="url('#b')" transform="translate(-384.571 -499.798)"/><path d="M427.552 501.801h-18.98v21.997h22v-19.16c0-3.046-2.86-2.837-3.02-2.837z" fill="url('#f')" transform="translate(-384.571 -499.798)"/><path d="M427.552 545.795h-18.98v-21.997h22v19.16c0 3.046-2.86 2.837-3.02 2.837z" fill="url('#e')" transform="translate(-384.571 -499.798)"/></g><path d="M16.708 18.962H9.424v-1.537q3.275-3.291 4.194-4.294.818-.918 1.102-1.386.284-.485.284-1.186 0-.719-.568-1.27t-1.52-.551q-.869 0-1.403.518-.535.5-.685 1.086l-1.404-.568q.284-.903 1.187-1.705.902-.801 2.338-.801 1.588 0 2.607.969 1.019.968 1.019 2.322 0 1.67-1.821 3.575l-3.342 3.358h5.296z" fill-opacity=".81"/><path d="M38 17.28q-1.24 1.682-3.25 1.682-2.008 0-3.25-1.682-1.241-1.683-1.241-4.165 0-2.5 1.241-4.165 1.242-1.682 3.25-1.682 2.01 0 3.25 1.682 1.242 1.666 1.242 4.165 0 2.482-1.241 4.165zm-3.25.245q1.34 0 2.14-1.258.817-1.258.817-3.152 0-1.911-.817-3.153-.8-1.257-2.14-1.257-1.355 0-2.155 1.257-.8 1.242-.8 3.153 0 1.894.8 3.152.8 1.258 2.156 1.258z" fill="#fff" fill-opacity=".81"/><path d="M389.59 545.795h18.981v-21.997h-22v19.16c0 3.046 2.86 2.837 3.02 2.837z" fill="url('#d')" fill-rule="evenodd" transform="translate(-384.571 -499.798)"/><path d="M15.677 40.83h-1.573V38.37H8.547v-1.197l5.42-8.036h1.71v7.762h1.504v1.47h-1.504zm-1.573-3.932v-5.454h-.069l-3.71 5.454h3.779z" fill="#fff" fill-opacity=".81"/><path d="M37.425 39.867q-1.094.964-2.695.964-1.6 0-2.694-.964-1.095-.964-1.095-2.385 0-.93.507-1.633.506-.719 1.323-1.127v-.065q-.637-.409-1.046-1.03-.408-.636-.408-1.322 0-1.356.964-2.254.963-.915 2.45-.915 1.486 0 2.45.915.963.898.963 2.254 0 .686-.408 1.323-.409.62-1.046 1.029v.065q.817.408 1.323 1.127.507.702.507 1.633 0 1.421-1.095 2.385zm-4.05-6.32q.539.473 1.355.473.817 0 1.34-.474.539-.49.539-1.274t-.54-1.241q-.522-.457-1.339-.457-.816 0-1.355.457-.523.457-.523 1.241t.523 1.274zm-.245 5.291q.653.555 1.6.555.948 0 1.601-.555t.653-1.437q0-.866-.653-1.421-.653-.556-1.6-.556-.948 0-1.601.556-.653.555-.653 1.42 0 .883.653 1.438z" fill-opacity=".81"/><path d="M2 24v19.16c0 1 .308 1.65.729 2.07l1.123 1.125c.585.166 1.102.141 1.168.141h37.96c.117 0 1.652.105 2.487-1L24 24z" fill-opacity=".078" fill-rule="evenodd"/></svg>